<?xml version="1.0" encoding="utf-8"?>
<!-- Generator: Adobe Illustrator 16.0.2, SVG Export Plug-In . SVG Version: 6.00 Build 0)  -->
<!DOCTYPE svg PUBLIC "-//W3C//DTD SVG 1.1//EN" "http://www.w3.org/Graphics/SVG/1.1/DTD/svg11.dtd">
<svg version="1.1" id="Layer_1" xmlns="http://www.w3.org/2000/svg" xmlns:xlink="http://www.w3.org/1999/xlink" x="0px" y="0px"
	 width="28px" height="33px" viewBox="0 0 28 33" enable-background="new 0 0 28 33" xml:space="preserve">
<g>
	<defs>
		<rect id="SVGID_1_" x="-4.75" y="-5" width="37.5" height="42.75"/>
	</defs>
	<clipPath id="SVGID_2_">
		<use xlink:href="#SVGID_1_"  overflow="visible"/>
	</clipPath>
	<path clip-path="url(#SVGID_2_)" fill="#1D0708" d="M14,0.158c-5.297,0-9.665,1.019-13.512,3.082v15.921
		c0,3.4,1.265,6.248,3.66,8.233c2.16,1.788,9.068,4.853,9.852,5.197c0.782-0.346,7.691-3.409,9.853-5.197
		c2.393-1.985,3.657-4.834,3.657-8.233V3.24C23.662,1.176,19.296,0.158,14,0.158"/>
</g>
<g>
	<defs>
		<path id="SVGID_3_" d="M0.765,3.407v15.754c0,3.313,1.229,6.088,3.559,8.017c2.13,1.765,8.899,4.769,9.677,5.11
			c0.776-0.342,7.546-3.346,9.675-5.11c2.328-1.929,3.56-4.703,3.56-8.017V3.407C23.56,1.435,19.105,0.436,14,0.436
			C8.894,0.436,4.443,1.435,0.765,3.407"/>
	</defs>
	<clipPath id="SVGID_4_">
		<use xlink:href="#SVGID_3_"  overflow="visible"/>
	</clipPath>
	
		<radialGradient id="SVGID_5_" cx="-9.7983" cy="-72.2954" r="0.9992" gradientTransform="matrix(0 44.463 -21.9866 0 -1584.7344 441.625)" gradientUnits="userSpaceOnUse">
		<stop  offset="0" style="stop-color:#F7DC15"/>
		<stop  offset="0.35" style="stop-color:#F7BE0E"/>
		<stop  offset="1" style="stop-color:#C76E13"/>
	</radialGradient>
	<path clip-path="url(#SVGID_4_)" fill="url(#SVGID_5_)" d="M0.765,0.437h26.471v31.851H0.765V0.437z"/>
</g>
<g>
	<defs>
		<rect id="SVGID_6_" x="-4.75" y="-5" width="37.5" height="42.75"/>
	</defs>
	<clipPath id="SVGID_7_">
		<use xlink:href="#SVGID_6_"  overflow="visible"/>
	</clipPath>
	<path clip-path="url(#SVGID_7_)" fill="#C76E13" d="M22.447,30.479v1.368h0.245v-0.571h0.034c0.018,0.028,0.367,0.571,0.367,0.571
		h0.297l-0.407-0.604c0.179-0.042,0.299-0.174,0.299-0.363c0-0.194-0.117-0.401-0.45-0.401H22.447z M22.803,30.681
		c0.208,0,0.236,0.101,0.236,0.19c0,0.129-0.056,0.213-0.317,0.213h-0.029v-0.403H22.803L22.803,30.681z M23.759,31.166
		c0,0.511-0.411,0.924-0.916,0.924c-0.503,0-0.915-0.413-0.915-0.924c0-0.51,0.412-0.927,0.915-0.927
		C23.348,30.239,23.758,30.657,23.759,31.166 M22.841,30.041c-0.609,0-1.11,0.509-1.11,1.126c0,0.62,0.501,1.123,1.11,1.123
		c0.616,0,1.112-0.503,1.112-1.123C23.953,30.55,23.457,30.041,22.841,30.041"/>
</g>
<g>
	<defs>
		<path id="SVGID_8_" d="M13.544,12.712v7.153c0.165,0.062,0.436,0.141,0.747,0.141c1.326,0,1.957-1.229,1.957-3.775
			c0-2.608-0.553-3.687-1.888-3.687c-0.312,0-0.628,0.074-0.815,0.167 M7.76,19.681v-8.775h2.299v10.1
			c-0.879,0.604-2.061,0.935-3.47,0.935c-2.278,0-3.433-1.249-3.433-3.718v-7.317h2.3v7.421c0,0.661,0.158,1.638,1.214,1.638
			C7.138,19.965,7.51,19.854,7.76,19.681 M11.241,11.497c0.835-0.545,1.848-0.827,3.104-0.827c2.749,0,4.26,2.108,4.26,5.501
			c0,3.402-1.47,5.728-4.024,5.728c-0.473,0-0.805-0.063-1.036-0.13v4.901h-2.304V11.497L11.241,11.497z M22.807,18.724
			c-0.018-0.73-0.427-1.127-1.438-1.728c-1.897-1.127-2.24-2.055-2.242-3.293c-0.01-1.88,1.573-2.989,3.087-3.033
			c1.266-0.04,2.124,0.441,2.527,0.756v2.023c-0.479-0.498-1.258-0.949-2.063-0.957c-0.65-0.006-1.33,0.285-1.354,1.113
			c-0.023,0.847,0.656,1.183,1.516,1.69c1.921,1.144,2.295,2.17,2.251,3.532c-0.042,1.485-1.059,3.113-3.333,3.113
			c-0.911,0-1.812-0.288-2.532-0.723v-2.144c0.589,0.528,1.468,0.941,2.203,0.946h0.008C22.275,20.021,22.828,19.534,22.807,18.724
			 M1.981,10.151v9.011c0,2.935,1.074,5.386,3.113,7.066c1.801,1.483,7.344,4.018,8.907,4.717c1.542-0.687,7.071-3.19,8.902-4.717
			c2.055-1.71,3.116-4.104,3.116-7.066V3.738c-1.635-0.154-3.331-0.255-5.063-0.255C14.542,3.483,7.666,4.877,1.981,10.151"/>
	</defs>
	<clipPath id="SVGID_9_">
		<use xlink:href="#SVGID_8_"  overflow="visible"/>
	</clipPath>
	
		<radialGradient id="SVGID_10_" cx="-9.772" cy="-72.3306" r="1.0002" gradientTransform="matrix(0 44.1192 -21.8167 0 -1573.1719 437.0938)" gradientUnits="userSpaceOnUse">
		<stop  offset="0" style="stop-color:#4B3333"/>
		<stop  offset="0.35" style="stop-color:#341A1A"/>
		<stop  offset="0.85" style="stop-color:#1D0708"/>
		<stop  offset="1" style="stop-color:#1D0708"/>
	</radialGradient>
	<path clip-path="url(#SVGID_9_)" fill="url(#SVGID_10_)" d="M1.98,3.483h24.039v27.462H1.98V3.483z"/>
</g>
<g>
	<defs>
		<path id="SVGID_11_" d="M1.98,19.162c0,2.935,1.075,5.386,3.114,7.066c1.801,1.483,7.344,4.018,8.907,4.717v-0.182
			c-1.298-0.581-6.979-3.162-8.802-4.665c-1.997-1.644-3.052-4.044-3.052-6.937H1.98L1.98,19.162z"/>
	</defs>
	<clipPath id="SVGID_12_">
		<use xlink:href="#SVGID_11_"  overflow="visible"/>
	</clipPath>
	
		<linearGradient id="SVGID_13_" gradientUnits="userSpaceOnUse" x1="-22.7593" y1="135.5293" x2="-22.3877" y2="135.5293" gradientTransform="matrix(-32.756 -31.6321 -31.6321 32.756 3555.625 -5128.3809)">
		<stop  offset="0" style="stop-color:#E49F19"/>
		<stop  offset="0.024" style="stop-color:#E39C1A"/>
		<stop  offset="0.178" style="stop-color:#DC9119"/>
		<stop  offset="0.396" style="stop-color:#D88A19"/>
		<stop  offset="1" style="stop-color:#D78818"/>
	</linearGradient>
	<path clip-path="url(#SVGID_12_)" fill="url(#SVGID_13_)" d="M8.199,37.018L-3.843,25.259L7.78,13.089l12.044,11.758"/>
</g>
<g>
	<defs>
		<path id="SVGID_14_" d="M25.854,19.162c0,2.914-1.03,5.248-3.058,6.937c-1.763,1.469-7.093,3.903-8.796,4.665v0.182
			c1.542-0.687,7.07-3.191,8.902-4.718c2.055-1.709,3.116-4.103,3.116-7.065H25.854z"/>
	</defs>
	<clipPath id="SVGID_15_">
		<use xlink:href="#SVGID_14_"  overflow="visible"/>
	</clipPath>
	
		<linearGradient id="SVGID_16_" gradientUnits="userSpaceOnUse" x1="-14.5474" y1="124.5508" x2="-14.1753" y2="124.5508" gradientTransform="matrix(32.756 -31.6321 -31.6321 -32.756 4430.1777 3650.5625)">
		<stop  offset="0" style="stop-color:#F8C212"/>
		<stop  offset="1" style="stop-color:#D89019"/>
	</linearGradient>
	<path clip-path="url(#SVGID_15_)" fill="url(#SVGID_16_)" d="M8.176,24.848l12.042-11.758l11.624,12.169L19.799,37.018"/>
</g>
<g>
	<defs>
		<path id="SVGID_17_" d="M1.98,10.15l0.167,0.072C6.944,5.801,13.097,3.65,20.955,3.65c1.535,0,3.141,0.08,4.899,0.241l0.164-0.152
			c-1.635-0.154-3.331-0.255-5.063-0.255C14.542,3.483,7.666,4.877,1.98,10.15"/>
	</defs>
	<clipPath id="SVGID_18_">
		<use xlink:href="#SVGID_17_"  overflow="visible"/>
	</clipPath>
	
		<linearGradient id="SVGID_19_" gradientUnits="userSpaceOnUse" x1="-11.2344" y1="127.1895" x2="-10.8654" y2="127.1895" gradientTransform="matrix(63.6689 -22.1719 -22.1719 -63.6689 3537.5313 7859.9375)">
		<stop  offset="0" style="stop-color:#E49F19"/>
		<stop  offset="0.975" style="stop-color:#8F4A0D"/>
		<stop  offset="1" style="stop-color:#8F4A0D"/>
	</linearGradient>
	<path clip-path="url(#SVGID_18_)" fill="url(#SVGID_19_)" d="M-0.089,4.212l23.508-8.277l4.67,13.56L4.581,17.772"/>
</g>
<g>
	<defs>
		<path id="SVGID_20_" d="M16.085,16.231c0,2.059-0.401,3.608-1.793,3.608v0.168c1.326,0,1.957-1.229,1.957-3.776H16.085z"/>
	</defs>
	<clipPath id="SVGID_21_">
		<use xlink:href="#SVGID_20_"  overflow="visible"/>
	</clipPath>
	
		<linearGradient id="SVGID_22_" gradientUnits="userSpaceOnUse" x1="-32.0288" y1="99.3389" x2="-31.6567" y2="99.3389" gradientTransform="matrix(5.1513 -10.2422 -10.2422 -5.1513 1196.75 203.6875)">
		<stop  offset="0" style="stop-color:#F8C212"/>
		<stop  offset="0.05" style="stop-color:#F8C212"/>
		<stop  offset="0.95" style="stop-color:#BF7311"/>
		<stop  offset="1" style="stop-color:#BF7311"/>
	</linearGradient>
	<path clip-path="url(#SVGID_21_)" fill="url(#SVGID_22_)" d="M12.793,19.245l1.895-3.809l3.06,1.557L15.854,20.8"/>
</g>
<g>
	<defs>
		<path id="SVGID_23_" d="M13.544,19.865c0.165,0.062,0.436,0.141,0.747,0.141v-0.167c-0.227,0-0.429-0.044-0.581-0.092
			L13.544,19.865L13.544,19.865z"/>
	</defs>
	<clipPath id="SVGID_24_">
		<use xlink:href="#SVGID_23_"  overflow="visible"/>
	</clipPath>
	
		<linearGradient id="SVGID_25_" gradientUnits="userSpaceOnUse" x1="-159.9434" y1="297.2568" x2="-159.5757" y2="297.2568" gradientTransform="matrix(-2.0486 -0.2515 -0.2515 2.0486 -238.5879 -629.2715)">
		<stop  offset="0" style="stop-color:#F8C212"/>
		<stop  offset="0.05" style="stop-color:#F8C212"/>
		<stop  offset="0.95" style="stop-color:#EEAF15"/>
		<stop  offset="1" style="stop-color:#EEAF15"/>
	</linearGradient>
	<path clip-path="url(#SVGID_24_)" fill="url(#SVGID_25_)" d="M14.279,20.098l-0.766-0.095l0.043-0.348l0.766,0.095"/>
</g>
<g>
	<g>
		<defs>
			<path id="SVGID_26_" d="M13.544,12.712l0.166,0.11c0.16-0.06,0.398-0.112,0.649-0.112v-0.167c-0.312,0-0.628,0.074-0.815,0.167"
				/>
		</defs>
		<clipPath id="SVGID_27_">
			<use xlink:href="#SVGID_26_"  overflow="visible"/>
		</clipPath>
		
			<linearGradient id="SVGID_28_" gradientUnits="userSpaceOnUse" x1="55.249" y1="-59.3369" x2="55.6176" y2="-59.3369" gradientTransform="matrix(2.186 -0.5735 -0.5735 -2.186 -141.2441 -85.2422)">
			<stop  offset="0" style="stop-color:#A55E13"/>
			<stop  offset="0.05" style="stop-color:#A55E13"/>
			<stop  offset="0.95" style="stop-color:#8F4A0D"/>
			<stop  offset="1" style="stop-color:#8F4A0D"/>
		</linearGradient>
		<path clip-path="url(#SVGID_27_)" fill="url(#SVGID_28_)" d="M13.477,12.562l0.831-0.22l0.12,0.462l-0.832,0.219"/>
	</g>
</g>
<g>
	<g>
		<defs>
			<path id="SVGID_29_" d="M14.36,12.712c1.358,0,1.725,1.282,1.725,3.519h0.163c0-2.608-0.553-3.687-1.888-3.687v0.167V12.712z"/>
		</defs>
		<clipPath id="SVGID_30_">
			<use xlink:href="#SVGID_29_"  overflow="visible"/>
		</clipPath>
		
			<linearGradient id="SVGID_31_" gradientUnits="userSpaceOnUse" x1="-53.7852" y1="128.9424" x2="-53.4131" y2="128.9424" gradientTransform="matrix(-5.0541 -9.9623 -9.9623 5.0541 1028.9688 -1171.2773)">
			<stop  offset="0" style="stop-color:#BF7311"/>
			<stop  offset="0.05" style="stop-color:#BF7311"/>
			<stop  offset="0.95" style="stop-color:#8F4A0D"/>
			<stop  offset="1" style="stop-color:#8F4A0D"/>
		</linearGradient>
		<path clip-path="url(#SVGID_30_)" fill="url(#SVGID_31_)" d="M14.746,17.002L12.889,13.3l2.974-1.526l1.86,3.703"/>
	</g>
</g>
<g>
	<g>
		<defs>
			<path id="SVGID_32_" d="M18.959,13.705l0.167-0.002c-0.01-1.88,1.573-2.989,3.088-3.033l-0.004-0.167
				c-1.675,0.048-3.26,1.287-3.251,3.201"/>
		</defs>
		<clipPath id="SVGID_33_">
			<use xlink:href="#SVGID_32_"  overflow="visible"/>
		</clipPath>
		
			<linearGradient id="SVGID_34_" gradientUnits="userSpaceOnUse" x1="-7.0098" y1="170.7314" x2="-6.6381" y2="170.7314" gradientTransform="matrix(-9.1515 8.269 8.269 9.1515 -1453.6465 -1493.9219)">
			<stop  offset="0" style="stop-color:#F8C212"/>
			<stop  offset="0.05" style="stop-color:#F8C212"/>
			<stop  offset="0.95" style="stop-color:#D89019"/>
			<stop  offset="1" style="stop-color:#D89019"/>
		</linearGradient>
		<path clip-path="url(#SVGID_33_)" fill="url(#SVGID_34_)" d="M23.792,12.265l-3.375,3.082l-3.042-3.405l3.371-3.082"/>
	</g>
</g>
<g>
	<g>
		<defs>
			<path id="SVGID_35_" d="M21.324,13.605l0.167,0.004c0.005-0.224,0.106-0.95,1.161-0.95l0.025-0.167h-0.019
				c-0.646,0-1.313,0.294-1.335,1.114"/>
		</defs>
		<clipPath id="SVGID_36_">
			<use xlink:href="#SVGID_35_"  overflow="visible"/>
		</clipPath>
		
			<linearGradient id="SVGID_37_" gradientUnits="userSpaceOnUse" x1="-26.7559" y1="38.9512" x2="-26.385" y2="38.9512" gradientTransform="matrix(3.5799 -3.112 -3.112 -3.5799 238.335 69.8086)">
			<stop  offset="0" style="stop-color:#D78818"/>
			<stop  offset="0.05" style="stop-color:#D78818"/>
			<stop  offset="0.95" style="stop-color:#8F4A0D"/>
			<stop  offset="1" style="stop-color:#8F4A0D"/>
		</linearGradient>
		<path clip-path="url(#SVGID_36_)" fill="url(#SVGID_37_)" d="M20.778,12.974l1.318-1.158l1.13,1.314l-1.318,1.158"/>
	</g>
</g>
<g>
	<g>
		<defs>
			<path id="SVGID_38_" d="M22.652,12.66c0.957,0,1.77,0.626,2.254,1.202l-0.164-0.412c-0.48-0.498-1.257-0.95-2.064-0.957
				L22.652,12.66L22.652,12.66z"/>
		</defs>
		<clipPath id="SVGID_39_">
			<use xlink:href="#SVGID_38_"  overflow="visible"/>
		</clipPath>
		
			<linearGradient id="SVGID_40_" gradientUnits="userSpaceOnUse" x1="-68.4077" y1="166.1748" x2="-68.0376" y2="166.1748" gradientTransform="matrix(-6.2761 -3.2671 -3.2671 6.2761 138.5313 -1252.6465)">
			<stop  offset="0" style="stop-color:#BF7311"/>
			<stop  offset="0.95" style="stop-color:#8F4A0D"/>
			<stop  offset="1" style="stop-color:#8F4A0D"/>
		</linearGradient>
		<path clip-path="url(#SVGID_39_)" fill="url(#SVGID_40_)" d="M24.428,14.793l-2.326-1.224l1.033-2.009l2.326,1.224"/>
	</g>
</g>
<g>
	<g>
		<defs>
			<path id="SVGID_41_" d="M22.21,10.502l0.004,0.167c1.266-0.04,2.124,0.441,2.528,0.756l0.164-0.083
				c-0.35-0.285-1.23-0.843-2.551-0.843C22.307,10.5,22.259,10.501,22.21,10.502"/>
		</defs>
		<clipPath id="SVGID_42_">
			<use xlink:href="#SVGID_41_"  overflow="visible"/>
		</clipPath>
		
			<linearGradient id="SVGID_43_" gradientUnits="userSpaceOnUse" x1="32.7051" y1="95.8184" x2="33.0737" y2="95.8184" gradientTransform="matrix(7.3046 2.3593 2.3593 -7.3046 -442.7734 633.2734)">
			<stop  offset="0" style="stop-color:#F8C212"/>
			<stop  offset="0.05" style="stop-color:#F8C212"/>
			<stop  offset="0.95" style="stop-color:#E49F19"/>
			<stop  offset="1" style="stop-color:#E49F19"/>
		</linearGradient>
		<path clip-path="url(#SVGID_42_)" fill="url(#SVGID_43_)" d="M22.465,9.701l2.71,0.886l-0.523,1.635l-2.71-0.883"/>
	</g>
</g>
<g>
	<g>
		<defs>
			<path id="SVGID_44_" d="M21.757,21.94v0.167c2.087,0,3.442-1.403,3.5-3.275l-0.166-0.005
				C25.049,20.313,24.031,21.94,21.757,21.94"/>
		</defs>
		<clipPath id="SVGID_45_">
			<use xlink:href="#SVGID_44_"  overflow="visible"/>
		</clipPath>
		
			<linearGradient id="SVGID_46_" gradientUnits="userSpaceOnUse" x1="-6.3926" y1="-101.4668" x2="-6.0205" y2="-101.4668" gradientTransform="matrix(-9.265 9.073 -9.073 -9.265 -954.6094 -863.3027)">
			<stop  offset="0" style="stop-color:#D78818"/>
			<stop  offset="0.05" style="stop-color:#D78818"/>
			<stop  offset="0.95" style="stop-color:#8F4A0D"/>
			<stop  offset="1" style="stop-color:#8F4A0D"/>
		</linearGradient>
		<path clip-path="url(#SVGID_45_)" fill="url(#SVGID_46_)" d="M26.88,20.501l-3.41,3.377l-3.335-3.445l3.408-3.375"/>
	</g>
</g>
<g>
	<g>
		<defs>
			<path id="SVGID_47_" d="M19.062,21.313c0.823,0.497,1.707,0.795,2.695,0.795V21.94c-0.91,0-1.812-0.288-2.531-0.723
				L19.062,21.313z"/>
		</defs>
		<clipPath id="SVGID_48_">
			<use xlink:href="#SVGID_47_"  overflow="visible"/>
		</clipPath>
		
			<linearGradient id="SVGID_49_" gradientUnits="userSpaceOnUse" x1="31.71" y1="-30.7383" x2="32.0786" y2="-30.7383" gradientTransform="matrix(7.341 2.119 -2.119 7.341 -278.8438 179.7266)">
			<stop  offset="0" style="stop-color:#BF7311"/>
			<stop  offset="0.95" style="stop-color:#8F4A0D"/>
			<stop  offset="1" style="stop-color:#8F4A0D"/>
		</linearGradient>
		<path clip-path="url(#SVGID_48_)" fill="url(#SVGID_49_)" d="M19.268,20.492l2.724,0.795l-0.44,1.548l-2.725-0.794"/>
	</g>
</g>
<g>
	<g>
		<defs>
			<path id="SVGID_50_" d="M19.226,19.075c0.588,0.527,1.467,0.94,2.202,0.945v-0.167c-0.821-0.005-1.768-0.539-2.367-1.151
				L19.226,19.075L19.226,19.075z"/>
		</defs>
		<clipPath id="SVGID_51_">
			<use xlink:href="#SVGID_50_"  overflow="visible"/>
		</clipPath>
		
			<linearGradient id="SVGID_52_" gradientUnits="userSpaceOnUse" x1="-65.6392" y1="164.7451" x2="-65.2695" y2="164.7451" gradientTransform="matrix(-6.6044 -3.2069 -3.2069 6.6044 116.2813 -1278.582)">
			<stop  offset="0" style="stop-color:#F8C212"/>
			<stop  offset="0.05" style="stop-color:#F8C212"/>
			<stop  offset="1" style="stop-color:#EEAF15"/>
		</linearGradient>
		<path clip-path="url(#SVGID_51_)" fill="url(#SVGID_52_)" d="M20.976,20.963l-2.428-1.195l0.966-2.008l2.427,1.192"/>
	</g>
</g>
<g>
	<g>
		<defs>
			<path id="SVGID_53_" d="M22.643,18.728c0.018,0.744-0.495,1.131-1.215,1.126v0.167c0.845,0.004,1.4-0.484,1.379-1.297
				L22.643,18.728L22.643,18.728z"/>
		</defs>
		<clipPath id="SVGID_54_">
			<use xlink:href="#SVGID_53_"  overflow="visible"/>
		</clipPath>
		
			<linearGradient id="SVGID_55_" gradientUnits="userSpaceOnUse" x1="-26.793" y1="48.1543" x2="-26.4212" y2="48.1543" gradientTransform="matrix(3.7734 -3.4698 -3.4698 -3.7734 289.6035 108.7695)">
			<stop  offset="0" style="stop-color:#F8C212"/>
			<stop  offset="0.05" style="stop-color:#F8C212"/>
			<stop  offset="0.95" style="stop-color:#D89019"/>
			<stop  offset="1" style="stop-color:#D89019"/>
		</linearGradient>
		<path clip-path="url(#SVGID_54_)" fill="url(#SVGID_55_)" d="M20.787,19.321l1.398-1.302l1.282,1.411l-1.401,1.299"/>
	</g>
</g>
<g>
	<g>
		<defs>
			<path id="SVGID_56_" d="M18.959,13.705c0.005,1.304,0.386,2.283,2.325,3.435c1.037,0.615,1.342,0.974,1.358,1.588l0.164-0.004
				c-0.018-0.73-0.427-1.127-1.438-1.728c-1.897-1.126-2.239-2.055-2.241-3.293l-0.166,0L18.959,13.705z"/>
		</defs>
		<clipPath id="SVGID_57_">
			<use xlink:href="#SVGID_56_"  overflow="visible"/>
		</clipPath>
		
			<linearGradient id="SVGID_58_" gradientUnits="userSpaceOnUse" x1="13.5161" y1="133.3457" x2="13.8891" y2="133.3457" gradientTransform="matrix(9.7366 14.0091 14.0091 -9.7366 -1980.5781 1122.6016)">
			<stop  offset="0" style="stop-color:#D89019"/>
			<stop  offset="0.4" style="stop-color:#BF7311"/>
			<stop  offset="0.6" style="stop-color:#BF7311"/>
			<stop  offset="1" style="stop-color:#D89019"/>
		</linearGradient>
		<path clip-path="url(#SVGID_57_)" fill="url(#SVGID_58_)" d="M21.554,11.881l3.581,5.21l-4.921,3.459l-3.583-5.211"/>
	</g>
</g>
<g>
	<g>
		<defs>
			<path id="SVGID_59_" d="M22.839,15.296c1.921,1.144,2.295,2.172,2.251,3.531l0.167,0.005c0.044-1.388-0.33-2.487-2.332-3.68
				c-0.816-0.498-1.454-0.77-1.434-1.542l-0.167-0.003C21.3,14.453,21.979,14.788,22.839,15.296"/>
		</defs>
		<clipPath id="SVGID_60_">
			<use xlink:href="#SVGID_59_"  overflow="visible"/>
		</clipPath>
		
			<linearGradient id="SVGID_61_" gradientUnits="userSpaceOnUse" x1="12.4551" y1="132.4805" x2="12.8274" y2="132.4805" gradientTransform="matrix(10.4299 14.2506 14.2506 -10.4299 -1996.4688 1217.8184)">
			<stop  offset="0" style="stop-color:#D78818"/>
			<stop  offset="0.4" style="stop-color:#E49F19"/>
			<stop  offset="0.6" style="stop-color:#E49F19"/>
			<stop  offset="1" style="stop-color:#D78818"/>
		</linearGradient>
		<path clip-path="url(#SVGID_60_)" fill="url(#SVGID_61_)" d="M23.907,11.678l3.856,5.331l-5.067,3.75l-3.857-5.33"/>
	</g>
</g>
<g>
	<g>
		<defs>
			<rect id="SVGID_62_" x="-4.75" y="-5" width="37.5" height="42.75"/>
		</defs>
		<clipPath id="SVGID_63_">
			<use xlink:href="#SVGID_62_"  overflow="visible"/>
		</clipPath>
		<path clip-path="url(#SVGID_63_)" fill="#8F4A0D" d="M13.544,26.671h-2.303l-0.167,0.169h2.635"/>
	</g>
</g>
<g>
	<g>
		<defs>
			<path id="SVGID_64_" d="M13.71,21.982c0.259,0.059,0.551,0.087,0.87,0.087v-0.17c-0.473,0-0.805-0.063-1.036-0.13L13.71,21.982
				L13.71,21.982z"/>
		</defs>
		<clipPath id="SVGID_65_">
			<use xlink:href="#SVGID_64_"  overflow="visible"/>
		</clipPath>
		
			<linearGradient id="SVGID_66_" gradientUnits="userSpaceOnUse" x1="94.6895" y1="43.3447" x2="95.0576" y2="43.3447" gradientTransform="matrix(2.874 0.445 -0.445 2.874 -239.3125 -144.8691)">
			<stop  offset="0" style="stop-color:#A55E13"/>
			<stop  offset="0.05" style="stop-color:#A55E13"/>
			<stop  offset="0.95" style="stop-color:#8F4A0D"/>
			<stop  offset="1" style="stop-color:#8F4A0D"/>
		</linearGradient>
		<path clip-path="url(#SVGID_65_)" fill="url(#SVGID_66_)" d="M13.569,21.609l1.058,0.165l-0.07,0.452L13.5,22.061"/>
	</g>
</g>
<g>
	<g>
		<defs>
			<path id="SVGID_67_" d="M18.604,16.171c0,3.402-1.467,5.728-4.024,5.728v0.167c2.966,0,4.188-2.864,4.188-5.895H18.604z"/>
		</defs>
		<clipPath id="SVGID_68_">
			<use xlink:href="#SVGID_67_"  overflow="visible"/>
		</clipPath>
		
			<linearGradient id="SVGID_69_" gradientUnits="userSpaceOnUse" x1="-5.0522" y1="155.6436" x2="-4.6802" y2="155.6436" gradientTransform="matrix(-11.368 15.8787 15.8787 11.368 -2510.0664 -1672.9688)">
			<stop  offset="0" style="stop-color:#A55E13"/>
			<stop  offset="0.05" style="stop-color:#A55E13"/>
			<stop  offset="0.95" style="stop-color:#8F4A0D"/>
			<stop  offset="1" style="stop-color:#8F4A0D"/>
		</linearGradient>
		<path clip-path="url(#SVGID_68_)" fill="url(#SVGID_69_)" d="M21.529,18.17l-4.182,5.9l-5.527-3.999l4.182-5.904"/>
	</g>
</g>
<g>
	<g>
		<defs>
			<path id="SVGID_70_" d="M11.074,11.407l0.167,0.09c0.835-0.545,1.848-0.827,3.104-0.827v-0.167
				C13.068,10.502,11.959,10.797,11.074,11.407"/>
		</defs>
		<clipPath id="SVGID_71_">
			<use xlink:href="#SVGID_70_"  overflow="visible"/>
		</clipPath>
		
			<linearGradient id="SVGID_72_" gradientUnits="userSpaceOnUse" x1="-29.9922" y1="181.7373" x2="-29.6236" y2="181.7373" gradientTransform="matrix(-8.9244 2.308 2.308 8.9244 -672.7461 -1542.1016)">
			<stop  offset="0" style="stop-color:#F8C212"/>
			<stop  offset="0.05" style="stop-color:#F8C212"/>
			<stop  offset="0.95" style="stop-color:#EEAF15"/>
			<stop  offset="1" style="stop-color:#EEAF15"/>
		</linearGradient>
		<path clip-path="url(#SVGID_71_)" fill="url(#SVGID_72_)" d="M14.584,11.435l-3.305,0.865l-0.444-1.734L14.14,9.7"/>
	</g>
</g>
<g>
	<g>
		<defs>
			<path id="SVGID_73_" d="M14.345,10.67c2.749,0,4.26,2.108,4.26,5.501h0.164c0-3.002-1.243-5.669-4.423-5.669L14.345,10.67
				L14.345,10.67z"/>
		</defs>
		<clipPath id="SVGID_74_">
			<use xlink:href="#SVGID_73_"  overflow="visible"/>
		</clipPath>
		
			<linearGradient id="SVGID_75_" gradientUnits="userSpaceOnUse" x1="10.6504" y1="132.1016" x2="11.0225" y2="132.1016" gradientTransform="matrix(11.9878 15.2886 15.2886 -11.9878 -2133 1431.2637)">
			<stop  offset="0" style="stop-color:#F8C212"/>
			<stop  offset="0.05" style="stop-color:#F8C212"/>
			<stop  offset="0.95" style="stop-color:#A55E13"/>
			<stop  offset="1" style="stop-color:#A55E13"/>
		</linearGradient>
		<path clip-path="url(#SVGID_74_)" fill="url(#SVGID_75_)" d="M17.084,8.33l4.408,5.683l-5.463,4.33l-4.407-5.682"/>
	</g>
</g>
<g>
	<g>
		<defs>
			<rect id="SVGID_76_" x="-4.75" y="-5" width="37.5" height="42.75"/>
		</defs>
		<clipPath id="SVGID_77_">
			<use xlink:href="#SVGID_76_"  overflow="visible"/>
		</clipPath>
		<path clip-path="url(#SVGID_77_)" fill="#F8C212" d="M5.458,10.906H3.157L2.99,10.739h2.633L5.458,10.906z M10.06,10.906H7.76
			l-0.165-0.167h2.629L10.06,10.906z"/>
	</g>
	<g>
		<defs>
			<rect id="SVGID_78_" x="-4.75" y="-5" width="37.5" height="42.75"/>
		</defs>
		<clipPath id="SVGID_79_">
			<use xlink:href="#SVGID_78_"  overflow="visible"/>
		</clipPath>
		<path clip-path="url(#SVGID_79_)" fill="#D78818" d="M1.981,19.162v-9.013l0.166,0.073v8.938L1.981,19.162L1.981,19.162z
			 M24.906,13.862v-2.519l-0.164,0.083v2.023L24.906,13.862L24.906,13.862z M5.623,18.327v-7.588l-0.166,0.167v7.421H5.623
			L5.623,18.327z"/>
	</g>
	<g>
		<defs>
			<rect id="SVGID_80_" x="-4.75" y="-5" width="37.5" height="42.75"/>
		</defs>
		<clipPath id="SVGID_81_">
			<use xlink:href="#SVGID_80_"  overflow="visible"/>
		</clipPath>
		<path clip-path="url(#SVGID_81_)" fill="#D89019" d="M25.854,19.162V3.891l0.164-0.152v15.424H25.854z M19.062,18.701v2.611
			l0.164-0.095v-2.143L19.062,18.701L19.062,18.701z M7.76,19.681v-8.775l-0.165-0.167v8.851L7.76,19.681z M3.157,18.223v-7.317
			l-0.166-0.167v7.484H3.157L3.157,18.223z"/>
	</g>
</g>
<g>
	<g>
		<defs>
			<path id="SVGID_82_" d="M2.991,18.223c0,2.464,1.143,3.885,3.6,3.885V21.94c-2.279,0-3.434-1.249-3.434-3.718H2.991z"/>
		</defs>
		<clipPath id="SVGID_83_">
			<use xlink:href="#SVGID_82_"  overflow="visible"/>
		</clipPath>
		
			<linearGradient id="SVGID_84_" gradientUnits="userSpaceOnUse" x1="19.1279" y1="130.5898" x2="19.5" y2="130.5898" gradientTransform="matrix(9.7472 10.4893 10.4893 -9.7472 -1553.2813 1090.4639)">
			<stop  offset="0" style="stop-color:#D89019"/>
			<stop  offset="0.05" style="stop-color:#D89019"/>
			<stop  offset="0.95" style="stop-color:#8F4A0D"/>
			<stop  offset="1" style="stop-color:#8F4A0D"/>
		</linearGradient>
		<path clip-path="url(#SVGID_83_)" fill="url(#SVGID_84_)" d="M4.922,16.409l3.583,3.898l-3.848,3.615l-3.583-3.899"/>
	</g>
</g>
<g>
	<g>
		<defs>
			<path id="SVGID_85_" d="M6.59,21.94v0.167c1.471,0,2.659-0.344,3.634-1.014l-0.165-0.088c-0.879,0.604-2.061,0.933-3.47,0.933"/>
		</defs>
		<clipPath id="SVGID_86_">
			<use xlink:href="#SVGID_85_"  overflow="visible"/>
		</clipPath>
		
			<linearGradient id="SVGID_87_" gradientUnits="userSpaceOnUse" x1="-29.4063" y1="-109.354" x2="-29.0383" y2="-109.354" gradientTransform="matrix(-9.928 2.5676 -2.5676 -9.928 -562.5 -989.0859)">
			<stop  offset="0" style="stop-color:#A55E13"/>
			<stop  offset="0.05" style="stop-color:#A55E13"/>
			<stop  offset="0.95" style="stop-color:#8F4A0D"/>
			<stop  offset="1" style="stop-color:#8F4A0D"/>
		</linearGradient>
		<path clip-path="url(#SVGID_86_)" fill="url(#SVGID_87_)" d="M10.488,22.04L6.818,23l-0.493-1.925l3.67-0.96"/>
	</g>
</g>
<g>
	<g>
		<defs>
			<path id="SVGID_88_" d="M6.671,19.798v0.167c0.467,0,0.838-0.11,1.088-0.284l-0.165-0.094
				C7.361,19.725,7.038,19.798,6.671,19.798"/>
		</defs>
		<clipPath id="SVGID_89_">
			<use xlink:href="#SVGID_88_"  overflow="visible"/>
		</clipPath>
		
			<linearGradient id="SVGID_90_" gradientUnits="userSpaceOnUse" x1="44.2793" y1="71.0957" x2="44.6481" y2="71.0957" gradientTransform="matrix(2.9715 -0.73 0.73 2.9715 -176.8242 -159.0234)">
			<stop  offset="0" style="stop-color:#F8C212"/>
			<stop  offset="0.05" style="stop-color:#F8C212"/>
			<stop  offset="0.95" style="stop-color:#EEAF15"/>
			<stop  offset="1" style="stop-color:#EEAF15"/>
		</linearGradient>
		<path clip-path="url(#SVGID_89_)" fill="url(#SVGID_90_)" d="M6.585,19.609l1.113-0.277l0.149,0.611l-1.115,0.277"/>
	</g>
</g>
<g>
	<g>
		<defs>
			<path id="SVGID_91_" d="M5.457,18.327c0,0.661,0.158,1.638,1.214,1.638v-0.167c-0.813,0-1.048-0.662-1.048-1.471H5.457z"/>
		</defs>
		<clipPath id="SVGID_92_">
			<use xlink:href="#SVGID_91_"  overflow="visible"/>
		</clipPath>
		
			<linearGradient id="SVGID_93_" gradientUnits="userSpaceOnUse" x1="-96.9189" y1="133.793" x2="-96.5469" y2="133.793" gradientTransform="matrix(-3.2519 -4.4431 -4.4431 3.2519 285.9609 -845.7266)">
			<stop  offset="0" style="stop-color:#F8C212"/>
			<stop  offset="0.05" style="stop-color:#F8C212"/>
			<stop  offset="0.95" style="stop-color:#D78818"/>
			<stop  offset="1" style="stop-color:#D78818"/>
		</linearGradient>
		<path clip-path="url(#SVGID_92_)" fill="url(#SVGID_93_)" d="M5.881,20.55l-1.195-1.651l1.563-1.155l1.195,1.649"/>
	</g>
</g>
<g>
	<g>
		<defs>
			<rect id="SVGID_94_" x="-4.75" y="-5" width="37.5" height="42.75"/>
		</defs>
		<clipPath id="SVGID_95_">
			<use xlink:href="#SVGID_94_"  overflow="visible"/>
		</clipPath>
		<path clip-path="url(#SVGID_95_)" fill="#D78818" d="M11.074,11.407V26.84l0.167-0.169V11.497"/>
	</g>
	<g>
		<defs>
			<rect id="SVGID_96_" x="-4.75" y="-5" width="37.5" height="42.75"/>
		</defs>
		<clipPath id="SVGID_97_">
			<use xlink:href="#SVGID_96_"  overflow="visible"/>
		</clipPath>
		<path clip-path="url(#SVGID_97_)" fill="#BF7311" d="M13.71,19.747v-6.925l-0.166-0.111v7.154L13.71,19.747z M13.71,21.982v4.857
			l-0.166-0.167v-4.904L13.71,21.982z M10.224,21.095V10.739l-0.165,0.167v10.1"/>
	</g>
</g>
</svg>
